<svg width="558" height="343" viewBox="0 0 558 343" fill="none" xmlns="http://www.w3.org/2000/svg">
<g filter="url(#filter0_d_10_11)">
<path d="M117.178 191.895C110.897 192.935 101.838 193.918 89.999 194.785C78.1604 195.651 70.1013 196.056 65.8216 196.056C61.4863 196.056 58.2071 195.478 55.9283 194.322C53.6495 193.224 52.3712 191.259 51.9821 188.543C50.7038 177.966 49.5922 165.887 48.6473 152.247C47.7024 138.665 46.9243 124.216 46.2574 108.958C45.8127 99.5377 49.6478 94.1627 57.818 93.0068C63.5428 92.1976 72.3801 91.3307 84.2742 90.4638C96.1684 89.5968 105.506 89.0767 112.287 88.9033C119.067 88.7299 125.681 89.8858 132.184 92.3132C138.687 94.7406 143.967 98.1506 148.08 102.485C156.584 111.444 161.253 122.193 162.142 134.793C163.031 148.086 159.752 160.223 152.249 171.204C148.636 176.521 143.801 181.029 137.742 184.728C131.629 188.427 124.792 190.797 117.178 191.895ZM105.951 121.269L108.396 156.929C108.452 157.738 108.785 158.431 109.396 159.067C110.008 159.703 110.786 159.992 111.731 159.934C117.789 159.472 122.291 156.986 125.237 152.42C128.183 147.855 129.461 142.653 129.072 136.7C128.683 130.805 126.849 125.777 123.569 121.616C120.29 117.454 116.177 115.547 111.119 115.952C109.897 116.067 108.952 116.183 108.285 116.298C106.562 116.992 105.784 118.668 105.951 121.269Z" fill="#F8F6BE"/>
<path d="M175.648 84.5109L213.22 77.9222C217.166 77.2286 219.89 77.8066 221.502 79.5983C223.114 81.3899 224.614 85.4934 226.059 91.7353C227.504 98.035 229.728 110.345 232.729 128.609C235.73 146.93 237.509 160.396 238.176 169.066C238.287 171.377 237.62 173.516 236.286 175.539C234.952 177.561 232.896 178.949 230.228 179.584C224.948 180.914 218.834 182.185 211.831 183.399C204.828 184.613 198.158 185.595 191.822 186.289C189.098 186.578 186.764 186 184.819 184.497C182.874 183.052 181.595 181.203 180.984 179.006C178.816 170.568 176.259 157.218 173.314 138.896C170.312 120.575 168.534 108.207 167.922 101.792C167.311 95.3764 167.478 90.9839 168.367 88.7299C169.312 86.7071 171.702 85.2044 175.648 84.5109Z" fill="#F8F6BE"/>
<path d="M272.135 178.024C265.021 176.29 260.019 174.556 257.129 172.764C254.183 170.973 252.238 169.643 251.293 168.892C248.792 166.869 247.513 164.037 247.402 160.396C247.347 157.564 247.625 154.848 248.236 152.247C249.348 147.392 251.571 144.907 254.794 144.849C255.85 144.907 259.185 146.005 264.854 148.028C270.524 150.051 274.97 151.033 278.194 150.976C283.029 150.86 285.419 148.837 285.308 144.907C285.252 142.537 284.03 140.399 281.64 138.434C279.25 136.469 276.304 134.562 272.914 132.77C269.523 130.978 266.077 128.898 262.631 126.586C259.185 124.274 256.239 120.98 253.738 116.703C251.293 112.484 250.014 107.513 249.903 101.792C249.737 92.3132 254.016 84.7998 262.798 79.2515C271.58 73.7031 283.029 70.7555 297.146 70.4666C311.264 70.1776 322.491 71.3913 330.828 74.2233C339.165 77.0552 343.389 81.1009 343.5 86.4181C343.556 90.2326 342.778 93.6425 341.166 96.5901C339.499 99.5376 337.776 101.04 335.83 101.04C335.163 101.04 332.94 100.347 329.161 98.9019C325.381 97.457 321.991 96.7635 318.934 96.8213C312.987 96.9369 310.041 99.4221 310.152 104.277C310.208 106.646 311.653 108.785 314.543 110.692C317.433 112.599 320.879 114.449 324.937 116.183C328.994 117.917 333.107 119.882 337.22 122.02C341.333 124.216 344.834 127.222 347.78 131.094C350.726 134.966 352.226 139.705 352.338 145.312C352.449 150.918 350.837 156.062 347.447 160.801C344.056 165.482 339.61 169.181 333.941 171.898C322.769 177.157 309.763 179.989 294.868 180.278C286.864 180.509 279.194 179.7 272.135 178.024Z" fill="#F8F6BE"/>
<path d="M451.548 171.262L432.318 153.172C430.317 151.265 428.427 150.455 426.648 150.744C424.481 151.033 423.647 153.056 424.147 156.755L426.037 170.684C426.259 172.418 425.703 173.978 424.37 175.25C423.036 176.521 421.313 177.446 419.256 177.908C413.42 179.18 406.751 180.336 399.303 181.434C391.855 182.532 384.741 183.399 378.071 183.977C375.237 184.208 372.847 183.514 370.901 181.954C368.956 180.393 367.733 178.486 367.289 176.29C365.399 167.794 363.176 154.559 360.73 136.411C358.285 118.321 356.84 106.011 356.395 99.5377C355.95 93.0646 356.228 88.6721 357.173 86.3603C358.174 84.1063 360.619 82.6614 364.565 82.0834L402.249 76.5351C405.361 76.0727 408.085 76.9974 410.53 79.1937C412.92 81.4477 414.421 84.3953 414.921 88.0942L417.311 104.45C417.589 106.473 418.256 107.456 419.256 107.282C419.923 107.167 421.09 106.184 422.869 104.219L446.824 73.4141C448.769 70.8133 451.326 69.3106 454.438 68.7905C457.551 68.2703 460.941 67.7502 464.498 67.23L475.337 65.7851C476.837 65.5539 477.949 66.1319 478.727 67.519C479.505 68.9061 479.394 70.2354 478.393 71.6225C469.112 84.4531 459.774 96.4167 450.27 107.513C449.436 108.554 449.103 109.478 449.214 110.403C449.325 111.328 449.992 112.253 451.159 113.177L459.83 119.939C464.221 123.349 467.833 126.181 470.668 128.378C473.502 130.574 476.837 133.175 480.728 136.296C488.454 142.537 494.401 147.623 498.569 151.554C500.737 153.634 502.015 155.888 502.349 158.316C502.46 159.183 502.46 160.165 502.293 161.148C501.737 164.615 499.681 166.58 496.235 167.101L458.385 172.649C455.494 173.227 453.216 172.707 451.548 171.262Z" fill="#F8F6BE"/>
<path d="M115.399 227.728C106.951 228.768 101.226 231.831 98.3362 236.802C95.446 241.772 94.5567 249.228 95.7239 259.111C97.5581 274.658 102.838 281.882 111.564 280.784C113.343 280.553 114.51 280.38 115.066 280.206C113.954 280.322 112.787 278.414 111.62 274.369C110.453 270.323 109.563 266.104 109.063 261.596C108.563 257.088 109.397 254.025 111.564 252.407C113.787 250.788 116.956 249.69 121.124 249.17C125.293 248.65 128.238 248.303 129.906 248.13C131.573 247.956 133.463 247.956 135.631 248.014C137.798 248.072 139.466 248.419 140.688 248.939C143.523 250.153 145.079 252.349 145.468 255.47L147.969 276.912C148.859 284.541 148.247 290.783 146.135 295.695C144.023 300.55 139.41 303.844 132.24 305.578C122.18 307.948 106.729 310.433 85.8862 313.034C77.4936 314.074 70.157 313.612 63.8764 311.647C57.5959 309.682 52.4825 306.445 48.6475 301.937C41.5888 293.615 37.1979 282.402 35.5861 268.358C33.9187 254.314 36.7533 241.252 44.1455 229.231C51.5376 217.209 62.3758 209.869 76.6599 207.268C86.442 205.419 93.5563 204.263 98.0027 203.685C114.065 201.662 125.626 201.258 132.629 202.471C137.409 203.28 140.132 206.806 140.911 213.163C141.911 221.659 140.021 226.225 135.186 226.803C133.685 226.919 130.628 226.977 126.071 227.034C121.513 227.208 117.956 227.381 115.399 227.728Z" fill="#F8F6BE"/>
<path d="M382.462 224.78L380.795 251.366C380.572 255.296 380.961 258.186 382.017 260.209C383.073 262.174 385.408 263.272 389.076 263.503L421.479 265.526C425.425 265.873 427.204 269.109 426.815 275.236C426.537 279.917 425.815 283.327 424.536 285.408C423.313 287.488 420.979 288.413 417.533 288.297C405.472 287.893 393.578 287.315 381.795 286.621C370.012 285.87 355.005 284.888 336.775 283.558C333.718 283.385 331.273 282.46 329.439 280.784C327.604 279.108 326.66 276.912 326.548 274.138C326.326 266.393 326.66 254.198 327.66 237.553C328.605 220.908 329.439 209.696 330.161 203.916C330.884 198.137 331.884 194.322 333.218 192.473C334.496 190.623 336.942 189.814 340.443 190.045L374.736 192.184C378.293 192.415 380.628 193.513 381.684 195.536C382.74 197.559 383.24 200.737 383.24 205.13C383.24 209.407 382.962 215.995 382.462 224.78Z" fill="#F8F6BE"/>
<path d="M433.262 279.108L425.203 199.35C425.092 191.143 427.871 186.52 433.429 185.479C437.431 184.902 464.109 181.781 513.465 176.117C518.8 175.481 521.913 179.584 522.802 188.254C523.247 192.646 521.079 195.131 516.355 195.651L487.231 199.004C485.341 199.235 483.951 200.102 482.951 201.547C481.951 203.049 481.617 204.899 481.839 207.153L482.895 217.614C483.173 220.677 484.507 222.064 486.842 221.775L509.018 219.232C511.13 219.001 512.798 219.348 513.965 220.272C515.132 221.255 515.91 223.624 516.299 227.497C516.688 231.369 516.41 233.912 515.521 235.068C514.576 236.282 512.964 236.975 510.686 237.264L490.788 239.576C488.565 239.807 487.064 240.616 486.341 241.888C485.619 243.159 485.397 245.067 485.619 247.61L488.12 272.866C488.453 276.276 488.064 278.935 486.897 280.726C485.73 282.518 484.063 283.558 481.951 283.847L443.989 288.182C441.488 288.471 439.265 287.835 437.32 286.217C435.263 284.714 433.985 282.287 433.262 279.108Z" fill="#F8F6BE"/>
<path d="M221.751 189.578C176.628 201.703 146.312 236.848 154.12 268.081C161.928 299.371 204.789 314.904 249.966 302.78C295.089 290.655 325.404 255.51 317.597 224.276C309.789 193.042 266.874 177.509 221.751 189.578ZM238.228 255.789C222.774 259.924 208.128 254.616 205.435 243.944C202.797 233.272 213.135 221.203 228.589 217.068C244.043 212.933 258.689 218.241 261.381 228.913C264.02 239.585 253.681 251.654 238.228 255.789Z" fill="#ECD06B"/>
</g>
<path d="M24.9362 66.6372C23.1022 66.3459 21.8241 65.9974 21.1019 65.6498C20.3241 65.2442 19.8242 64.9546 19.5464 64.7809C18.8799 64.3177 18.4916 63.6237 18.437 62.7568C18.3822 62.0632 18.383 61.3698 18.495 60.6764C18.6631 59.4631 19.1642 58.7702 19.998 58.7135C20.276 58.7139 21.1096 58.8884 22.5543 59.2948C23.9991 59.7012 25.1663 59.8183 25.9446 59.7615C27.1676 59.6476 27.7242 59.0704 27.6141 58.0878C27.5592 57.5099 27.2262 56.9893 26.5597 56.5261C25.8932 56.0629 25.1711 55.6575 24.2821 55.3096C23.3931 54.9039 22.5042 54.4982 21.6154 53.9769C20.6711 53.4556 19.8381 52.7032 19.1722 51.7199C18.4507 50.7365 18.063 49.5225 17.8978 48.0775C17.6782 45.7078 18.5698 43.7441 20.6839 42.1866C22.7979 40.629 25.5784 39.6503 29.0808 39.2503C32.5832 38.8504 35.418 38.9697 37.5852 39.4926C39.7525 40.0156 40.8632 40.9416 40.9729 42.271C41.0829 43.2535 40.9152 44.1201 40.5808 44.871C40.2464 45.6218 39.8013 46.0258 39.3565 46.083C39.1898 46.0827 38.634 45.9664 37.6338 45.6762C36.6892 45.386 35.7999 45.2692 35.0216 45.3838C33.5205 45.5552 32.8527 46.2478 32.9626 47.4037C33.0175 47.9817 33.406 48.5023 34.1838 48.9079C34.9615 49.3134 35.8504 49.7191 36.9062 50.0672C37.9619 50.4154 39.0176 50.8213 40.0732 51.285C41.1288 51.7487 42.073 52.4434 42.9058 53.3113C43.7386 54.237 44.182 55.3934 44.3471 56.7806C44.5123 58.1678 44.1773 59.4965 43.4532 60.7669C42.7291 62.0373 41.6719 63.0184 40.2813 63.8256C37.6114 65.3824 34.3862 66.3606 30.6615 66.7603C28.6602 66.931 26.7147 66.9285 24.9362 66.6372Z" fill="#316D7B"/>
<path d="M67.7664 37.7382L81.3625 56.8846C81.9175 57.6366 82.1946 58.3305 82.2496 58.8506C82.3045 59.4286 82.1373 59.8329 81.7478 60.1792C81.3584 60.4676 80.8579 60.6981 80.302 60.7552L68.9061 61.9539C67.7387 62.0679 66.9607 61.9513 66.6276 61.5463C66.5166 61.4306 66.3502 61.1414 66.1838 60.7945L64.8523 58.5967C64.464 57.9027 63.6862 57.6127 62.5745 57.6113L55.8482 58.296C55.3479 58.3531 54.9587 58.4104 54.7362 58.5835C54.4582 58.6987 54.2912 58.9296 54.1795 59.334L53.0643 62.4532C52.897 62.9153 52.6187 63.2617 52.3962 63.4348C52.1181 63.6078 51.7289 63.7229 51.173 63.7799L48.0044 64.1225C47.0593 64.2369 46.5594 63.9472 46.3934 63.2535C46.338 63.1379 46.338 63.0801 46.3382 62.9645C46.2833 62.3865 46.395 61.8666 46.7292 61.2891L55.8137 39.7452C56.7054 37.7237 58.3186 36.57 60.7089 36.342L63.544 36.0568C65.4341 35.8281 66.823 36.4078 67.7664 37.7382ZM57.1935 48.3578L55.9111 51.8813C55.8552 52.1124 55.7994 52.3435 55.8548 52.4591C55.9097 53.0949 56.2429 53.3843 56.8544 53.3273L60.0786 52.9848C60.5789 52.9277 60.9126 52.7547 61.0797 52.466C61.2467 52.1773 61.3026 51.9462 61.3028 51.7728C61.303 51.5994 61.2477 51.3682 61.1367 51.1947L59.4726 48.1874C59.1398 47.5513 58.751 47.3196 58.3064 47.319C57.7504 47.4339 57.4165 47.7802 57.1935 48.3578Z" fill="#316D7B"/>
<path d="M105.232 33.7387L118.828 52.8851C119.383 53.6371 119.661 54.331 119.716 54.8512C119.77 55.4291 119.603 55.8335 119.214 56.1797C118.824 56.4681 118.324 56.6986 117.768 56.7557L106.372 57.9544C105.205 58.0684 104.427 57.9518 104.094 57.5469C103.983 57.4311 103.816 57.142 103.65 56.795L102.374 54.5973C101.986 53.9033 101.208 53.6133 100.096 53.6119L93.3697 54.2966C92.8694 54.3537 92.4803 54.411 92.2577 54.5841C91.9797 54.6993 91.8127 54.9302 91.701 55.3346L90.5858 58.4538C90.4186 58.9159 90.1403 59.2623 89.9177 59.4354C89.6396 59.6084 89.2504 59.7235 88.6945 59.7805L85.5259 60.1231C84.5808 60.2375 84.0809 59.9478 83.9149 59.2541C83.8595 59.1385 83.8595 59.0807 83.8597 58.9651C83.8048 58.3871 83.9165 57.8672 84.2507 57.2897L93.3352 35.7458C94.2269 33.7243 95.8401 32.5706 98.2304 32.3426L101.066 32.0574C102.956 31.8865 104.345 32.4084 105.232 33.7387ZM94.715 44.4162L93.4325 47.9397C93.3767 48.1708 93.3208 48.4019 93.3763 48.5175C93.4312 49.1533 93.7643 49.4427 94.3758 49.3857L97.6 49.0432C98.1003 48.986 98.434 48.8131 98.6011 48.5244C98.7682 48.2356 98.824 48.0046 98.8242 47.8312C98.8244 47.6578 98.7691 47.4266 98.6581 47.2531L96.9941 44.2458C96.6613 43.6097 96.2725 43.378 95.8278 43.3774C95.2719 43.4345 94.938 43.7808 94.715 44.4162Z" fill="#316D7B"/>
<path d="M145.57 46.6177C146.07 47.0807 147.847 48.7589 150.901 51.6524C151.067 51.8837 151.178 52.0573 151.234 52.2307C151.288 52.8665 151.066 53.2129 150.51 53.27C149.231 53.4417 148.008 53.5556 146.73 53.7273C145.451 53.8412 144.228 53.9552 142.949 54.0691C142.282 54.126 141.615 53.9518 141.005 53.4309L137.508 48.9765C137.397 48.8608 137.23 48.745 137.063 48.7448C136.674 48.6287 136.507 48.8018 136.563 49.2642L136.947 53.021C137.057 54.0614 136.445 54.6963 135.111 54.9257C133.777 55.1551 132.331 55.3266 130.719 55.4978C129.107 55.6691 127.217 55.7822 124.938 55.8948C124.271 55.8939 123.659 55.7198 123.215 55.3146C122.771 54.9095 122.494 54.4469 122.328 53.8687C121.941 51.73 121.5 48.3198 121.061 43.6961C120.621 39.0723 120.347 35.6624 120.294 33.5819C120.241 31.4436 121.131 30.289 123.077 30.0604C124.856 29.8315 127.302 29.5458 130.415 29.2609C133.528 28.9183 136.086 28.6904 138.143 28.5198C141.089 28.2347 143.589 29.1626 145.699 31.1302C147.809 33.1556 148.974 35.5265 149.248 38.3008C149.413 39.9191 149.189 41.4791 148.632 42.9231C147.852 44.4247 146.905 45.637 145.57 46.6177ZM135.187 36.6065L135.902 43.4266C135.957 43.889 136.235 44.1205 136.735 44.0634C138.181 43.8919 139.293 43.3732 140.072 42.4496C140.851 41.526 141.13 40.4862 141.021 39.3302C140.911 38.1743 140.412 37.249 139.523 36.4966C138.635 35.7441 137.468 35.4537 135.911 35.625C135.355 35.5665 135.133 35.9129 135.187 36.6065Z" fill="#316D7B"/>
<path d="M155.678 52.0006C155.178 51.5955 154.79 50.9015 154.569 49.8611C154.348 48.8207 153.962 45.6997 153.468 40.4983C152.973 35.297 152.699 31.8294 152.701 30.2692C152.704 28.1889 153.428 27.0342 154.929 26.805C156.652 26.5761 163.657 25.7763 176.111 24.4635C177.5 24.292 178.278 25.1598 178.498 27.0092C178.663 28.4541 178.106 29.2623 176.883 29.3763L169.1 30.2329C168.6 30.29 168.21 30.5207 167.987 30.8671C167.709 31.2712 167.597 31.6756 167.652 32.2535L167.927 34.912C167.982 35.6633 168.371 36.0106 168.982 35.8958L175.431 35.2108C175.82 35.1535 176.098 35.1539 176.321 35.212C176.543 35.27 176.71 35.4436 176.932 35.7906C177.153 36.1376 177.264 36.7156 177.374 37.5248C177.429 38.3339 177.373 38.9116 177.15 39.2003C176.927 39.4889 176.482 39.6617 175.871 39.7187L169.922 40.3465C169.311 40.4035 168.921 40.6342 168.754 40.9229C168.587 41.2694 168.475 41.7315 168.53 42.3672L168.695 44.1588C168.805 45.1991 169.36 45.7199 170.305 45.6056L179.145 44.6926C179.59 44.6354 179.979 44.7514 180.312 44.983C180.645 45.2146 180.867 45.735 180.977 46.6019C181.087 47.4688 180.92 48.2776 180.585 49.0284C180.251 49.7792 179.806 50.1253 179.25 50.1824L157.345 52.5229C156.734 52.5799 156.178 52.4058 155.678 52.0006Z" fill="#316D7B"/>
<path d="M194.783 24.4275C195.782 25.4691 196.893 26.7997 198.225 28.4774C199.557 30.155 200.445 31.2542 200.944 31.775C201.444 32.2958 201.833 32.5852 202.111 32.5278C202.389 32.4704 202.611 32.2973 202.779 31.9508C202.946 31.6042 203.614 30.2759 204.784 28.0236C205.898 25.7135 206.845 23.981 207.625 22.7684C208.404 21.5559 209.016 20.921 209.572 20.8061C210.073 20.749 210.74 20.6343 211.574 20.5776C212.407 20.4631 213.352 20.4065 214.464 20.3502C215.576 20.2939 216.354 20.5261 216.742 21.0467C217.186 21.5674 217.463 22.319 217.629 23.3017C218.015 25.8449 218.456 29.2551 218.84 33.5321C219.28 37.8092 219.499 41.1613 219.496 43.6463C219.495 44.2242 219.328 44.8019 218.994 45.3216C218.659 45.8412 218.159 46.1295 217.492 46.1864C216.046 46.3579 214.434 46.5292 212.711 46.7581C210.932 46.9291 209.542 47.0429 208.486 47.0993C208.097 47.0988 207.764 46.9828 207.431 46.7512C207.097 46.5196 206.931 46.1148 206.82 45.6524L205.994 39.5833C205.939 39.0053 205.772 38.6584 205.55 38.6003C205.328 38.5422 205.105 38.7153 204.994 39.1197C203.99 41.5455 202.653 44.3177 201.093 47.3786C200.704 48.1293 200.147 48.5331 199.425 48.6478C198.702 48.7046 198.035 48.4148 197.536 47.7784C196.592 46.6214 194.927 44.192 192.542 40.4325C192.375 40.2011 192.264 40.0854 192.097 40.0274C191.931 39.9694 191.819 40.0848 191.708 40.2581C191.597 40.4313 191.596 40.7202 191.596 41.1248L192.034 47.2511C192.033 47.7134 191.866 48.1178 191.532 48.4641C191.198 48.8104 190.753 48.9832 190.253 49.0403L186.751 49.4402C186.084 49.4972 185.584 49.3231 185.139 48.918C184.695 48.5129 184.418 48.0502 184.307 47.4722C183.921 45.3334 183.48 41.9232 183.04 37.2994C182.601 32.6756 182.327 29.3234 182.218 27.1272C182.164 26.0869 182.331 25.2781 182.666 24.6428C183 24.0654 183.612 23.6616 184.612 23.6052C189.56 23.0915 192.284 22.8061 192.673 22.8644C193.117 22.865 193.784 23.386 194.783 24.4275Z" fill="#316D7B"/>
<path d="M242.867 19.1127L256.463 38.2591C257.018 39.0111 257.295 39.705 257.35 40.2252C257.405 40.8032 257.238 41.2075 256.848 41.5537C256.459 41.8421 255.958 42.0726 255.402 42.1297L244.006 43.3284C242.839 43.4424 242.061 43.3258 241.728 42.9209C241.617 42.8051 241.451 42.516 241.284 42.169L240.008 39.9713C239.62 39.2773 238.842 38.9873 237.731 38.9859L231.004 39.6706C230.504 39.7277 230.115 39.785 229.892 39.9581C229.614 40.0733 229.447 40.3042 229.335 40.7086L228.22 43.8278C228.053 44.2899 227.775 44.6363 227.552 44.8094C227.274 44.9824 226.885 45.0975 226.329 45.1545L223.16 45.4971C222.215 45.6115 221.715 45.3219 221.549 44.6281C221.494 44.5125 221.494 44.4547 221.494 44.3391C221.439 43.7611 221.551 43.2412 221.885 42.6637L230.97 21.1198C231.861 19.0983 233.475 17.9446 235.865 17.7166L238.7 17.4314C240.534 17.2604 241.923 17.7823 242.867 19.1127ZM232.294 29.7901L231.011 33.3136C230.956 33.5447 230.9 33.7758 230.955 33.8915C231.01 34.5272 231.343 34.8166 231.955 34.7596L235.179 34.4171C235.679 34.36 236.013 34.187 236.18 33.8983C236.347 33.6096 236.403 33.3785 236.403 33.2051C236.403 33.0317 236.348 32.8005 236.237 32.627L234.573 29.6197C234.24 28.9836 233.851 28.7519 233.407 28.7513C232.851 28.8084 232.517 29.1547 232.294 29.7901Z" fill="#316D7B"/>
<path d="M281.278 15.0566L294.874 34.203C295.429 34.955 295.706 35.6488 295.761 36.169C295.816 36.747 295.649 37.1513 295.259 37.4976C294.87 37.786 294.369 38.0165 293.813 38.0736L282.417 39.2722C281.25 39.3863 280.472 39.2697 280.139 38.8647C280.028 38.749 279.861 38.4598 279.695 38.1129L278.419 35.9152C278.031 35.2212 277.253 34.9312 276.141 34.9297L269.415 35.6144C268.915 35.6715 268.526 35.7288 268.303 35.9019C268.025 36.0171 267.858 36.2481 267.746 36.6525L266.631 39.7717C266.464 40.2338 266.186 40.5802 265.963 40.7532C265.685 40.9262 265.296 41.0413 264.74 41.0984L261.571 41.441C260.626 41.5553 260.126 41.2657 259.96 40.572C259.905 40.4563 259.905 40.3986 259.905 40.283C259.85 39.705 259.962 39.185 260.296 38.6076L269.381 17.0637C270.272 15.0422 271.885 13.8885 274.276 13.6604L277.111 13.3752C278.945 13.1465 280.39 13.7262 281.278 15.0566ZM270.76 25.6762L269.478 29.1998C269.422 29.4309 269.366 29.6619 269.422 29.7776C269.476 30.4134 269.81 30.7028 270.421 30.6458L273.645 30.3032C274.146 30.2461 274.479 30.0732 274.646 29.7844C274.814 29.4957 274.869 29.2646 274.87 29.0912C274.87 28.9179 274.814 28.6866 274.703 28.5131L273.039 25.5059C272.707 24.8697 272.318 24.6381 271.873 24.6375C271.317 24.7523 270.983 25.0986 270.76 25.6762Z" fill="#316D7B"/>
<defs>
<filter id="filter0_d_10_11" x="35.1233" y="65.7356" width="487.736" height="251.839" filterUnits="userSpaceOnUse" color-interpolation-filters="sRGB">
<feFlood flood-opacity="0" result="BackgroundImageFix"/>
<feColorMatrix in="SourceAlpha" type="matrix" values="0 0 0 0 0 0 0 0 0 0 0 0 0 0 0 0 0 0 127 0" result="hardAlpha"/>
<feOffset dy="4"/>
<feColorMatrix type="matrix" values="0 0 0 0 0 0 0 0 0 0 0 0 0 0 0 0 0 0 0.25 0"/>
<feBlend mode="normal" in2="BackgroundImageFix" result="effect1_dropShadow_10_11"/>
<feBlend mode="normal" in="SourceGraphic" in2="effect1_dropShadow_10_11" result="shape"/>
</filter>
</defs>
</svg>
