<svg width="799" height="685" viewBox="0 0 799 685" fill="none" xmlns="http://www.w3.org/2000/svg">
<g opacity="0.33">
<ellipse cx="208.584" cy="619.897" rx="23.5841" ry="16.0399" fill="white"/>
<ellipse cx="270.846" cy="623.671" rx="23.5841" ry="16.0399" fill="white"/>
<ellipse cx="236.885" cy="631.219" rx="23.5841" ry="16.0399" fill="white"/>
<ellipse cx="247.262" cy="608.574" rx="18.8673" ry="16.0399" fill="white"/>
<ellipse cx="224.621" cy="601.97" rx="15.0938" ry="18.8705" fill="white"/>
</g>
<g opacity="0.33">
<ellipse cx="487.089" cy="558.373" rx="13.4186" ry="8.96352" fill="white"/>
<ellipse cx="522.514" cy="560.482" rx="13.4186" ry="8.96352" fill="white"/>
<ellipse cx="503.191" cy="564.7" rx="13.4186" ry="8.96352" fill="white"/>
<ellipse cx="509.095" cy="552.046" rx="10.7349" ry="8.96352" fill="white"/>
<ellipse cx="496.213" cy="548.355" rx="8.58788" ry="10.5453" fill="white"/>
</g>
<g opacity="0.33">
<ellipse cx="655.419" cy="665.685" rx="16.2649" ry="11.3223" fill="white"/>
<ellipse cx="698.359" cy="668.35" rx="16.2649" ry="11.3223" fill="white"/>
<ellipse cx="674.937" cy="673.678" rx="16.2649" ry="11.3223" fill="white"/>
<ellipse cx="682.094" cy="657.693" rx="13.0119" ry="11.3223" fill="white"/>
<ellipse cx="666.479" cy="653.031" rx="10.4096" ry="13.3204" fill="white"/>
</g>
<g opacity="0.33">
<ellipse cx="640.275" cy="132.51" rx="25.6173" ry="17.4552" fill="white"/>
<ellipse cx="707.904" cy="136.617" rx="25.6173" ry="17.4552" fill="white"/>
<ellipse cx="671.015" cy="144.831" rx="25.6173" ry="17.4552" fill="white"/>
<ellipse cx="682.287" cy="120.189" rx="20.4938" ry="17.4552" fill="white"/>
<ellipse cx="657.694" cy="113.001" rx="16.395" ry="20.5356" fill="white"/>
</g>
<g opacity="0.33">
<ellipse cx="273.367" cy="25.9747" rx="16.6715" ry="11.3223" fill="white"/>
<ellipse cx="317.38" cy="28.6388" rx="16.6715" ry="11.3223" fill="white"/>
<ellipse cx="293.373" cy="33.9669" rx="16.6715" ry="11.3223" fill="white"/>
<ellipse cx="300.709" cy="17.9825" rx="13.3372" ry="11.3223" fill="white"/>
<ellipse cx="284.704" cy="13.3204" rx="10.6698" ry="13.3204" fill="white"/>
</g>
<g opacity="0.33">
<ellipse cx="130.158" cy="116.553" rx="16.6715" ry="11.3223" fill="white"/>
<ellipse cx="174.171" cy="119.217" rx="16.6716" ry="11.3223" fill="white"/>
<ellipse cx="150.164" cy="124.545" rx="16.6715" ry="11.3223" fill="white"/>
<ellipse cx="157.5" cy="108.561" rx="13.3372" ry="11.3223" fill="white"/>
<ellipse cx="141.495" cy="103.899" rx="10.6698" ry="13.3204" fill="white"/>
</g>
<g opacity="0.33">
<ellipse cx="23.7131" cy="391.563" rx="23.6432" ry="16.04" fill="white"/>
<ellipse cx="86.131" cy="395.337" rx="23.6432" ry="16.04" fill="white"/>
<ellipse cx="52.0849" cy="402.886" rx="23.6432" ry="16.04" fill="white"/>
<ellipse cx="62.4878" cy="380.241" rx="18.9145" ry="16.04" fill="white"/>
<ellipse cx="39.7904" cy="373.636" rx="15.1316" ry="18.8705" fill="white"/>
</g>
<g opacity="0.33">
<ellipse cx="750.074" cy="441.376" rx="13.4186" ry="8.9635" fill="white"/>
<ellipse cx="785.5" cy="443.485" rx="13.4186" ry="8.9635" fill="white"/>
<ellipse cx="766.177" cy="447.703" rx="13.4186" ry="8.9635" fill="white"/>
<ellipse cx="772.081" cy="435.049" rx="10.7349" ry="8.9635" fill="white"/>
<ellipse cx="759.199" cy="431.358" rx="8.58789" ry="10.5453" fill="white"/>
</g>
</svg>
